Pinocchio 2002(DualAudio) DVDRip Xvid fasamoo LKRG


RIPPER                           : fasamoo
Format                           : AVI
Format/Info                      : Audio Video Interleave
File size                        : 1.37 GiB
Duration                         : 1h 39mn
Overall bit rate                 : 1 962 Kbps
Writing application              : VirtualDubMod 1.5.4.1 (build 2178/release)
Writing library                  : VirtualDubMod build 2178/release
Language                         : English,French
Subtitles                        : English(*.srt)
                                 : English,French(*.idx,*.sub)
Genre                            : Comedy | Family | Fantasy

Video
ID                               : 0
Format                           : MPEG-4 Visual
Format profile                   : Advanced Simple@L5
Format settings, BVOP            : Yes
Format settings, QPel            : No
Format settings, GMC             : No warppoints
Format settings, Matrix          : Custom
Codec ID                         : XVID
Codec ID/Hint                    : XviD
Duration                         : 1h 39mn
Bit rate                         : 1 716 Kbps
Width                            : 720 pixels
Height                           : 288 pixels
Display aspect ratio             : 2.500
Frame rate                       : 23.976 fps
Color space                      : YUV
Chroma subsampling               : 4:2:0
Bit depth                        : 8 bits
Scan type                        : Progressive
Bits/(Pixel*Frame)               : 0.345
Stream size                      : 1.20 GiB (87%)
Writing library                  : XviD 1.2.1 (UTC 2008-12-04)

Audio #1
ID                               : 1
Format                           : MPEG Audio
Format version                   : Version 1
Format profile                   : Layer 3
Mode                             : Joint stereo
Mode extension                   : MS Stereo
Codec ID                         : 55
Codec ID/Hint                    : MP3
Duration                         : 1h 39mn
Bit rate mode                    : Variable
Bit rate                         : 112 Kbps
Nominal bit rate                 : 128 Kbps
Channel(s)                       : 2 channels
Sampling rate                    : 48.0 KHz
Stream size                      : 79.9 MiB (6%)
Alignment                        : Aligned on interleaves
Interleave, duration             : 24 ms (0.58 video frame)
Interleave, preload duration     : 164 ms
Writing library                  : LAME3.98r
Encoding settings                : -m j -V 4 -q 2 -lowpass 17 --abr 128
Language                         : English

Audio #2
ID                               : 2
Format                           : MPEG Audio
Format version                   : Version 1
Format profile                   : Layer 3
Mode                             : Joint stereo
Mode extension                   : MS Stereo
Codec ID                         : 55
Codec ID/Hint                    : MP3
Duration                         : 1h 39mn
Bit rate mode                    : Variable
Bit rate                         : 113 Kbps
Nominal bit rate                 : 128 Kbps
Channel(s)                       : 2 channels
Sampling rate                    : 48.0 KHz
Stream size                      : 80.4 MiB (6%)
Alignment                        : Aligned on interleaves
Interleave, duration             : 24 ms (0.58 video frame)
Interleave, preload duration     : 163 ms
Writing library                  : LAME3.98r
Encoding settings                : -m j -V 4 -q 2 -lowpass 17 --abr 128
Language                         : French

PLOT

Despite guidance from the Blue Fairy, and the love of his father, Gepetto, a wooden puppet's curious spirit leads him into one wild adventure after another.



                                 IMBD
                     
                 http://www.imdb.com/title/tt0255477/
 
http://leetleech.org/images/17989185242743912475.png 
http://leetleech.org/images/72438695069574552762.png 
http://leetleech.org/images/35454475068311746673.png 
http://leetleech.org/images/26387239661051469170.png 
http://leetleech.org/images/51459538923003028383.png